<?xml version="1.0" encoding="utf-8"?>
<!-- Generator: Adobe Illustrator 23.0.1, SVG Export Plug-In . SVG Version: 6.00 Build 0)  -->
<svg version="1.1" id="Layer_1" xmlns="http://www.w3.org/2000/svg" xmlns:xlink="http://www.w3.org/1999/xlink" x="0px" y="0px"
	 viewBox="0 0 29.3 28" style="enable-background:new 0 0 29.3 28;" xml:space="preserve">
<style type="text/css">
	.st0{fill-rule:evenodd;clip-rule:evenodd;fill:#7F8184;}
</style>
<g>
	<g>
		<g>
			<path id="path-2" class="st0" d="M23.8,3.1c0.4,0,0.8,0.3,0.8,0.8c0,0,0,5.7,0,6.1s-0.3,0.8-0.8,0.8c-1,0-3,0.2-3.1,0.2
				c-2.3,0.3-4.4,0.9-6.4,1.5c-1.4,0.4-2.7,0.7-4,1v3.5c0,0.5,0.3,1.2,0.6,1.6l0.7,0.9c0.6,0.7,0.4,1.2,0.3,1.5
				c-0.1,0.2-0.4,0.7-1.3,0.7H8.6C8.3,23.6,7,24.6,6,25.4c-0.9,0.7-1.4,1.1-1.4,1.8c0,0.4-0.3,0.8-0.8,0.8c-0.4,0-0.8-0.3-0.8-0.8
				c0-1.5,1-2.3,2-3c0.9-0.7,1.7-1.3,2-2.6H5.7c-1.1,0-1.9-0.9-1.9-1.9V13C1.5,11.9,0,9.6,0,6.9C0,3.1,3.1,0,6.9,0
				c2.3,0,4.7,0.7,7.4,1.4c1.8,0.5,5.2,1.2,6.1,1.4c0.1,0,0.2,0,0.2,0C21.7,3,22.7,3.1,23.8,3.1L23.8,3.1z M13.9,10.9
				c-2.5,0.7-4.9,1.3-7,1.3c-2.9,0-5.3-2.4-5.3-5.3S4,1.6,6.9,1.6c2.1,0,4.4,0.6,7,1.3c1.8,0.5,3.8,1,5.9,1.4v5.3
				C17.7,9.9,15.7,10.4,13.9,10.9L13.9,10.9z M23,4.6c-0.6,0-1.1-0.1-1.7-0.1v4.8c0.5-0.1,1.1-0.1,1.7-0.1V4.6L23,4.6z M10,20
				l-0.4-0.5c-0.5-0.6-0.9-1.7-0.9-2.5v-3.3c-0.6,0.1-1.2,0.1-1.8,0.1c-0.5,0-1.1-0.1-1.6-0.2v6c0,0.2,0.2,0.4,0.4,0.4H10L10,20z"/>
		</g>
	</g>
	<g>
		<g>
			<path id="path-3" class="st0" d="M3.3,6.9c0-2,1.7-3.7,3.7-3.7c2.1,0,3.7,1.7,3.7,3.7c0,2-1.7,3.7-3.7,3.7C5,10.6,3.3,9,3.3,6.9
				L3.3,6.9z M4.9,6.9c0,1.2,1,2.2,2.2,2.2c1.2,0,2.2-1,2.2-2.2c0-1.2-1-2.2-2.2-2.2C5.8,4.7,4.9,5.7,4.9,6.9L4.9,6.9z"/>
		</g>
	</g>
	<g>
		<g>
			<path id="path-4" class="st0" d="M26.1,4.6h1.2c0.4,0,0.8-0.3,0.8-0.8s-0.3-0.8-0.8-0.8h-1.2c-0.4,0-0.8,0.3-0.8,0.8
				S25.6,4.6,26.1,4.6z"/>
		</g>
	</g>
	<g>
		<g>
			<path id="path-5" class="st0" d="M28.5,6.1h-2.5c-0.4,0-0.8,0.3-0.8,0.8s0.3,0.8,0.8,0.8h2.5c0.4,0,0.8-0.3,0.8-0.8
				S28.9,6.1,28.5,6.1z"/>
		</g>
	</g>
	<g>
		<g>
			<path id="path-6" class="st0" d="M27.3,9.2h-1.2c-0.4,0-0.8,0.3-0.8,0.8c0,0.4,0.3,0.8,0.8,0.8h1.2c0.4,0,0.8-0.3,0.8-0.8
				C28.1,9.5,27.7,9.2,27.3,9.2z"/>
		</g>
	</g>
</g>
</svg>
