<?xml version="1.0" encoding="utf-8"?>
<svg version="1.1" xmlns="http://www.w3.org/2000/svg" xmlns:xlink="http://www.w3.org/1999/xlink" height="30.704630109478558" width="20.605264875103558">
  <defs>
    <path id="path-0" opacity="1" fill-rule="evenodd" d="M17.552601919973654,2.352315054739165 C17.760670767629904,2.352315054739165 17.96040831645803,2.442586050832915 18.093556509817404,2.60258971294229 C18.226735220754904,2.762593375051665 18.280812369192404,2.97185240825479 18.23921691020803,3.17290221294229 L14.244374380911154,23.80632506450479 L14.244374380911154,27.125569449270415 C14.244374380911154,27.39635191997354 14.082112418020529,27.64250670512979 13.832417593801779,27.75328551372354 C13.778340445364279,27.777913199270415 12.463368521536154,28.352315054739165 10.299489127004904,28.352315054739165 C8.135640250051779,28.352315054739165 6.820668326223654,27.777913199270415 6.766591177786154,27.75328551372354 C6.516896353567404,27.64250670512979 6.354603873098654,27.39635191997354 6.354603873098654,27.125569449270415 L6.354603873098654,23.80632506450479 L2.363942252004904,3.17290221294229 C2.326497183645529,2.97185240825479 2.380604849661154,2.762593375051665 2.509602652395529,2.60258971294229 C2.642750845754904,2.442586050832915 2.842488394583029,2.352315054739165 3.050557242239279,2.352315054739165 L17.552601919973654,2.352315054739165 L17.552601919973654,2.352315054739165ZM5.010518179739279,3.73497496684854 L4.606892691458029,5.815144644582915 L4.298939810598654,5.815144644582915 L3.899464712942404,3.73497496684854 L5.010518179739279,3.73497496684854 L5.010518179739279,3.73497496684854ZM7.794423209036154,5.815144644582915 L8.198048697317404,3.73497496684854 L6.437855826223654,3.73497496684854 L6.034199820364279,5.815144644582915 L7.794423209036154,5.815144644582915 L7.794423209036154,5.815144644582915ZM11.385579214895529,3.73497496684854 L10.981953726614279,5.815144644582915 L9.221730337942404,5.815144644582915 L9.625386343801779,3.73497496684854 L11.385579214895529,3.73497496684854 L11.385579214895529,3.73497496684854ZM14.169484244192404,5.815144644582915 L14.573109732473654,3.73497496684854 L12.812916861379904,3.73497496684854 L12.409260855520529,5.815144644582915 L14.169484244192404,5.815144644582915 L14.169484244192404,5.815144644582915ZM15.596791373098654,5.815144644582915 L16.30421935161428,5.815144644582915 L16.70784483989553,3.73497496684854 L16.00044737895803,3.73497496684854 L15.596791373098654,5.815144644582915 L15.596791373098654,5.815144644582915ZM12.971028433645529,23.047261343801665 L7.636281119192404,23.047261343801665 L4.569417105520529,7.19371520122354 L16.05452452739553,7.19371520122354 L12.971028433645529,23.047261343801665 L12.971028433645529,23.047261343801665ZM7.756978140676779,26.633198843801665 C8.239674673879904,26.77269469341104 9.121876822317404,26.969624625051665 10.303670035208029,26.969624625051665 C11.485493765676779,26.969624625051665 12.367665396536154,26.77269469341104 12.850392447317404,26.633198843801665 L12.850392447317404,24.429951773489165 L7.756978140676779,24.429951773489165 L7.756978140676779,26.633198843801665 L7.756978140676779,26.633198843801665Z"/>
    <path id="path-1" opacity="1" fill-rule="evenodd" d="M13.482877109566964,9.593912582896836 C13.104201120839727,9.524163484891915 12.738008955916687,9.76623388385017 12.663106013091518,10.143699590700328 L11.41472363267206,16.589336823978577 C11.34398196444829,16.962699642710795 11.589497165930785,17.32375379708921 11.972334429259417,17.397605783212068 C12.018108449874799,17.40581155944794 12.05972119588878,17.409914447565875 12.10549521650416,17.409914447565875 C12.434235910014618,17.409914447565875 12.72968640671389,17.18015271296143 12.792105525734863,16.847818775408577 L14.040487906154322,10.402181542130329 C14.111229574378092,10.028818723398107 13.861553098294198,9.667764569019695 13.482877109566964,9.593912582896836Z"/>
  </defs>
  <g opacity="1">
    <g opacity="1">
      <use xlink:href="#path-0" fill="rgb(127,129,132)" fill-opacity="1"/>
    </g>
    <g opacity="1">
      <use xlink:href="#path-1" fill="rgb(127,129,132)" fill-opacity="1"/>
    </g>
  </g>
</svg>